<?xml version="1.0" standalone="no"?>
<!DOCTYPE svg PUBLIC "-//W3C//DTD SVG 20010904//EN"
 "http://www.w3.org/TR/2001/REC-SVG-20010904/DTD/svg10.dtd">
<svg version="1.0" xmlns="http://www.w3.org/2000/svg"
 width="106.000000pt" height="106.000000pt" viewBox="0 0 106.000000 106.000000"
 preserveAspectRatio="xMidYMid meet">
<metadata>
Created by potrace 1.11, written by Peter Selinger 2001-2013
</metadata>
<g transform="translate(0.000000,106.000000) scale(0.100000,-0.100000)"
fill="#000000" stroke="none">
<path d="M143 929 c-27 -8 -35 -18 -53 -66 -39 -104 -19 -244 41 -299 17 -16
21 -16 35 -3 13 14 12 20 -11 61 -35 62 -42 130 -21 201 18 61 20 63 101 58
131 -7 236 -120 234 -251 -1 -30 -4 -66 -8 -79 l-7 -25 -22 28 c-25 32 -24 29
-13 76 4 20 4 46 0 58 -7 19 -12 21 -29 12 -11 -6 -20 -20 -20 -32 0 -21 -1
-21 -20 -3 -18 16 -20 26 -15 78 5 42 3 62 -6 68 -23 14 -39 -3 -45 -50 l-6
-48 -41 8 c-49 9 -67 3 -67 -21 0 -24 5 -26 65 -35 27 -3 50 -7 50 -8 0 -1 9
-13 20 -26 l20 -24 -21 5 c-25 6 -54 -8 -54 -26 0 -17 13 -22 74 -31 42 -7 76
-32 76 -57 0 -6 -51 -3 -97 6 -32 7 -51 -20 -30 -42 19 -18 146 -27 183 -12
12 5 30 28 40 54 11 26 24 44 31 42 6 -3 27 6 45 19 76 55 132 78 203 83 39 2
89 -1 112 -7 38 -10 44 -16 53 -51 6 -22 8 -55 5 -73 -3 -17 -7 -45 -10 -60
-17 -110 -91 -210 -190 -257 -51 -24 -160 -36 -198 -21 -16 6 -14 10 12 35 27
26 37 29 96 29 70 0 91 12 80 47 -4 14 -15 20 -36 20 -16 0 -29 5 -29 10 0 6
4 10 9 10 5 0 13 9 16 20 6 18 15 20 79 20 71 0 93 9 91 35 -2 27 -19 35 -79
35 l-63 0 8 51 c8 50 -1 89 -21 89 -34 0 -40 -13 -40 -84 0 -67 -2 -74 -30
-101 l-30 -29 0 26 c0 41 -10 58 -35 58 -29 0 -35 -16 -35 -94 0 -55 -3 -65
-28 -89 -16 -15 -31 -24 -35 -20 -4 3 -7 42 -7 85 0 55 -4 78 -12 79 -90 8
-228 -22 -228 -50 0 -17 15 -13 35 9 34 37 125 38 125 1 0 -21 -15 -36 -47
-45 -21 -7 -22 -5 -17 23 11 52 -18 36 -49 -27 -30 -63 -34 -82 -14 -82 7 0
19 15 25 34 12 31 17 34 60 38 26 3 48 4 49 4 1 -1 3 -21 6 -46 4 -43 17 -88
35 -119 21 -37 180 -62 260 -41 202 55 320 222 314 445 -1 74 -26 123 -68 141
-118 49 -264 27 -395 -59 l-26 -17 -1 42 c-2 50 -39 132 -78 174 -78 84 -201
122 -301 93z"/>
<path d="M141 382 c-19 -15 -32 -34 -30 -41 3 -8 -8 -27 -24 -42 -30 -30 -31
-46 -5 -62 21 -14 68 6 108 45 46 43 29 46 -26 4 -49 -38 -64 -43 -64 -25 0
12 53 66 85 87 19 12 18 12 -7 9 -19 -3 -25 0 -21 10 3 7 11 13 18 13 7 0 15
3 18 8 2 4 2 1 0 -6 -1 -8 3 -12 9 -10 7 3 14 12 16 21 5 27 -39 21 -77 -11z"/>
</g>
</svg>
